name rise49.5252peak65.1548fall88.8305.mot
datacolumns 19
datarows 32
range 22.90991100000000 22.96657600000000
endheader
time	ground_force1_vx	ground_force1_vy	ground_force1_vz	ground_force1_px	ground_force1_py	ground_force1_pz	ground_force2_vx	ground_force2_vy	ground_force2_vz	ground_force2_px	ground_force2_py	ground_force2_pz	ground_torque1_x	ground_torque1_y	ground_torque1_z	ground_torque2_x	ground_torque2_y	ground_torque2_z	
22.90991100000000	-39.97118400000000	787.58499300000005	53.46785500000000	0.17544800000000	0.00000000000000	0.11626700000000	-7.70459300000000	21.26060300000000	3.96818600000000	0.00000000000000	0.00000000000000	0.00000000000000	0.00000000000000	25.58582900000000	0.00000000000000	0.00000000000000	1.21591400000000	0.00000000000000	
22.91657000000000	-40.29081500000000	784.20232799999997	53.24858800000000	0.17459900000000	0.00000000000000	0.11620700000000	-9.31088500000000	27.19513100000000	4.85309400000000	0.35202600000000	0.00000000000000	-0.05642100000000	0.00000000000000	25.46768100000000	0.00000000000000	0.00000000000000	2.67580700000000	0.00000000000000	
22.91823800000000	-40.62953000000000	780.72674500000005	53.01099300000000	0.17374400000000	0.00000000000000	0.11614200000000	-10.87374700000000	33.53265900000000	5.73411100000000	0.35601600000000	0.00000000000000	-0.05751200000000	0.00000000000000	25.34989200000000	0.00000000000000	0.00000000000000	3.18634700000000	0.00000000000000	
22.91990600000000	-40.98746800000000	777.15927499999998	52.75503200000000	0.17288500000000	0.00000000000000	0.11607400000000	-12.33410300000000	40.15065700000000	6.58155900000000	0.35976600000000	0.00000000000000	-0.05847400000000	0.00000000000000	25.23262400000000	0.00000000000000	0.00000000000000	3.68626300000000	0.00000000000000	
22.92157000000000	-41.36471000000000	773.50088100000005	52.48068500000000	0.17202200000000	0.00000000000000	0.11600300000000	-13.63889400000000	46.92876400000000	7.36817500000000	0.36331900000000	0.00000000000000	-0.05932800000000	0.00000000000000	25.11602700000000	0.00000000000000	0.00000000000000	4.16044600000000	0.00000000000000	
22.92324000000000	-41.76126900000000	769.75245099999995	52.18794900000000	0.17115700000000	0.00000000000000	0.11592600000000	-14.74459200000000	53.75791600000000	8.07090400000000	0.36671200000000	0.00000000000000	-0.06009000000000	0.00000000000000	25.00024400000000	0.00000000000000	0.00000000000000	4.59576200000000	0.00000000000000	
22.92490900000000	-42.17710000000000	765.91479800000002	51.87684300000000	0.17029200000000	0.00000000000000	0.11584600000000	-15.61954100000000	60.54745800000000	8.67216500000000	0.36997000000000	0.00000000000000	-0.06077500000000	0.00000000000000	24.88540400000000	0.00000000000000	0.00000000000000	4.98179900000000	0.00000000000000	
22.92657000000000	-42.61208800000000	761.98864900000001	51.54740200000000	0.16942800000000	0.00000000000000	0.11576100000000	-16.24501900000000	67.22972300000001	9.16048000000000	0.37311400000000	0.00000000000000	-0.06139300000000	0.00000000000000	24.77162500000000	0.00000000000000	0.00000000000000	5.31128400000000	0.00000000000000	
22.92823800000000	-43.06605300000000	757.97464400000001	51.19968100000000	0.16856600000000	0.00000000000000	0.11567200000000	-16.61508500000000	73.76200700000000	9.53052200000000	0.37616100000000	0.00000000000000	-0.06195300000000	0.00000000000000	24.65901000000000	0.00000000000000	0.00000000000000	5.58018500000000	0.00000000000000	
22.92990300000000	-43.53874800000000	753.87333200000000	50.83375000000000	0.16770700000000	0.00000000000000	0.11557700000000	-16.73540200000000	80.12616400000000	9.78264800000000	0.37912400000000	0.00000000000000	-0.06246300000000	0.00000000000000	24.54764700000000	0.00000000000000	0.00000000000000	5.78754300000000	0.00000000000000	
22.93157000000000	-44.02985900000000	749.68516799999998	50.44969900000000	0.16685500000000	0.00000000000000	0.11547800000000	-16.62131200000000	86.32624600000000	9.92204400000000	0.38201200000000	0.00000000000000	-0.06292900000000	0.00000000000000	24.43761000000000	0.00000000000000	0.00000000000000	5.93506900000000	0.00000000000000	
22.93324000000000	-44.53900000000000	745.41051200000004	50.04763600000000	0.16600900000000	0.00000000000000	0.11537300000000	-16.29543700000000	92.38472500000000	9.95762400000000	0.38483400000000	0.00000000000000	-0.06335700000000	0.00000000000000	24.32895500000000	0.00000000000000	0.00000000000000	6.02660100000000	0.00000000000000	
22.93490400000000	-45.06571600000000	741.04962599999999	49.62768500000000	0.16517100000000	0.00000000000000	0.11526400000000	-15.78509600000000	98.33784900000001	9.90081300000000	0.38759500000000	0.00000000000000	-0.06375000000000	0.00000000000000	24.22172000000000	0.00000000000000	0.00000000000000	6.06747400000000	0.00000000000000	
22.93657300000000	-45.60947900000000	736.60267499999998	49.18998700000000	0.16434400000000	0.00000000000000	0.11514900000000	-15.11978200000000	104.23068800000000	9.76433700000000	0.39030100000000	0.00000000000000	-0.06411400000000	0.00000000000000	24.11592500000000	0.00000000000000	0.00000000000000	6.06387700000000	0.00000000000000	
22.93823700000000	-46.16969100000000	732.06972800000005	48.73470300000000	0.16352700000000	0.00000000000000	0.11502800000000	-14.32888900000000	110.11229100000000	9.56111300000000	0.39295600000000	0.00000000000000	-0.06445100000000	0.00000000000000	24.01157200000000	0.00000000000000	0.00000000000000	6.02224800000000	0.00000000000000	
22.93990400000000	-46.74567900000000	727.45075699999995	48.26200900000000	0.16272400000000	0.00000000000000	0.11490200000000	-13.43982900000000	116.03136499999999	9.30331700000000	0.39556000000000	0.00000000000000	-0.06476500000000	0.00000000000000	23.90864100000000	0.00000000000000	0.00000000000000	5.94875100000000	0.00000000000000	
22.94157900000000	-47.33669700000000	722.74564099999998	47.77209900000000	0.16193400000000	0.00000000000000	0.11477100000000	-12.47662300000000	122.03268300000001	9.00167200000000	0.39811800000000	0.00000000000000	-0.06505700000000	0.00000000000000	23.80709500000000	0.00000000000000	0.00000000000000	5.84886200000000	0.00000000000000	
22.94324400000000	-47.94192200000000	717.95416499999999	47.26518600000000	0.16116000000000	0.00000000000000	0.11463400000000	-11.45898500000000	128.15440400000000	8.66496100000000	0.40063000000000	0.00000000000000	-0.06533000000000	0.00000000000000	23.70687200000000	0.00000000000000	0.00000000000000	5.72707300000000	0.00000000000000	
22.94490600000000	-48.56045900000000	713.07602899999995	46.74150000000000	0.16040300000000	0.00000000000000	0.11449100000000	-10.40189100000000	134.42632900000001	8.29978200000000	0.40309600000000	0.00000000000000	-0.06558500000000	0.00000000000000	23.60789200000000	0.00000000000000	0.00000000000000	5.58672600000000	0.00000000000000	
22.94657400000000	-49.19133600000000	708.11084800000003	46.20128800000000	0.15966300000000	0.00000000000000	0.11434200000000	-9.31557100000000	140.86906200000001	7.91050500000000	0.40551700000000	0.00000000000000	-0.06582600000000	0.00000000000000	23.51005400000000	0.00000000000000	0.00000000000000	5.42996500000000	0.00000000000000	
22.94824100000000	-49.83350400000000	703.05815700000005	45.64481500000000	0.15894300000000	0.00000000000000	0.11418700000000	-8.20585100000000	147.49397800000000	7.49940700000000	0.40789300000000	0.00000000000000	-0.06605200000000	0.00000000000000	23.41323400000000	0.00000000000000	0.00000000000000	5.25777700000000	0.00000000000000	
22.94990800000000	-50.48583900000000	697.91741700000000	45.07236600000000	0.15824300000000	0.00000000000000	0.11402700000000	-7.07476100000000	154.30385100000001	7.06693600000000	0.41022500000000	0.00000000000000	-0.06626600000000	0.00000000000000	23.31728700000000	0.00000000000000	0.00000000000000	5.07012300000000	0.00000000000000	
22.95157500000000	-51.14714100000000	692.68802000000005	44.48424200000000	0.15756400000000	0.00000000000000	0.11386000000000	-5.92129800000000	161.29397000000000	6.61206300000000	0.41251000000000	0.00000000000000	-0.06646800000000	0.00000000000000	23.22204700000000	0.00000000000000	0.00000000000000	4.86612500000000	0.00000000000000	
22.95323900000000	-51.81613600000000	687.36929999999995	43.88076500000000	0.15690800000000	0.00000000000000	0.11368800000000	-4.74228500000000	168.45357700000000	6.13268900000000	0.41474900000000	0.00000000000000	-0.06666100000000	0.00000000000000	23.12732800000000	0.00000000000000	0.00000000000000	4.64427500000000	0.00000000000000	
22.95491100000000	-52.49147300000000	681.96053199999994	43.26227500000000	0.15627400000000	0.00000000000000	0.11351000000000	-3.53321500000000	175.76745199999999	5.62604400000000	0.41694000000000	0.00000000000000	-0.06684300000000	0.00000000000000	23.03292200000000	0.00000000000000	0.00000000000000	4.40266700000000	0.00000000000000	
22.95657500000000	-53.17172900000000	676.46094900000003	42.62913000000000	0.15566400000000	0.00000000000000	0.11332500000000	-2.28904300000000	183.21750399999999	5.08908000000000	0.41908300000000	0.00000000000000	-0.06701800000000	0.00000000000000	22.93860300000000	0.00000000000000	0.00000000000000	4.13921400000000	0.00000000000000	
22.95823800000000	-53.85540900000000	670.86974499999997	41.98171000000000	0.15507800000000	0.00000000000000	0.11313600000000	-1.00486300000000	190.78425700000000	4.51880100000000	0.42117700000000	0.00000000000000	-0.06718400000000	0.00000000000000	22.84412400000000	0.00000000000000	0.00000000000000	3.85184700000000	0.00000000000000	
22.95990700000000	-54.54094500000000	665.18608900000004	41.32041200000000	0.15451700000000	0.00000000000000	0.11294000000000	0.32355200000000	198.44812700000000	3.91253900000000	0.42322000000000	0.00000000000000	-0.06734300000000	0.00000000000000	22.74922100000000	0.00000000000000	0.00000000000000	3.53868000000000	0.00000000000000	
22.96157800000000	-55.22670400000000	659.40913000000000	40.64565300000000	0.15398200000000	0.00000000000000	0.11273900000000	1.69936100000000	206.19045800000001	3.26815400000000	0.42521100000000	0.00000000000000	-0.06749600000000	0.00000000000000	22.65361200000000	0.00000000000000	0.00000000000000	3.19813500000000	0.00000000000000	
22.96324500000000	-55.91098200000000	653.53801399999998	39.95787200000000	0.15347300000000	0.00000000000000	0.11253200000000	3.12441800000000	213.99426399999999	2.58416700000000	0.42714900000000	0.00000000000000	-0.06764300000000	0.00000000000000	22.55699800000000	0.00000000000000	0.00000000000000	2.82902700000000	0.00000000000000	
22.96490400000000	-56.59201500000000	647.57189500000004	39.25752700000000	0.15298900000000	0.00000000000000	0.11231900000000	4.59917700000000	221.84470700000000	1.85981900000000	0.42903200000000	0.00000000000000	-0.06778400000000	0.00000000000000	22.45906700000000	0.00000000000000	0.00000000000000	2.43061600000000	0.00000000000000	
22.96657600000000	-57.26797500000000	641.50994400000002	38.54509700000000	0.15253200000000	0.00000000000000	0.11210100000000	6.12271700000000	229.72931000000000	1.09507300000000	0.43086000000000	0.00000000000000	-0.06792100000000	0.00000000000000	22.35948900000000	0.00000000000000	0.00000000000000	2.00261200000000	0.00000000000000	
